<svg width="12" height="13" viewBox="0 0 12 13" fill="none" xmlns="http://www.w3.org/2000/svg">
<path d="M5.62217 1.08696C5.74669 0.728732 6.25331 0.728731 6.37783 1.08696L7.55441 4.47184C7.60934 4.62987 7.75682 4.73702 7.92409 4.74042L11.5069 4.81344C11.8861 4.82116 12.0426 5.30298 11.7404 5.5321L8.88476 7.69709C8.75144 7.79816 8.69511 7.97153 8.74356 8.13167L9.78127 11.5617C9.89109 11.9247 9.48123 12.2225 9.16993 12.0058L6.22847 9.95899C6.09115 9.86343 5.90885 9.86343 5.77153 9.95899L2.83007 12.0058C2.51877 12.2225 2.10891 11.9247 2.21873 11.5617L3.25644 8.13167C3.30489 7.97153 3.24856 7.79816 3.11524 7.69709L0.259606 5.5321C-0.0426068 5.30298 0.113945 4.82116 0.493114 4.81344L4.07591 4.74042C4.24318 4.73702 4.39066 4.62987 4.44559 4.47184L5.62217 1.08696Z" fill="#F4C017"/>
</svg>
