<?xml version="1.0" encoding="UTF-8"?> <svg xmlns="http://www.w3.org/2000/svg" width="683" height="371" viewBox="0 0 683 371" fill="none"><path d="M501 107.5H370.5C378 93.9999 396.348 63.5862 425.5 44C457.5 22.5 487.5 20.8333 501 22.5V107.5Z" fill="#EB5757" fill-opacity="0.1"></path><path d="M80 300V109.5C96.5 108.5 151.152 130.133 186 157C251.5 207.5 315 241 353.5 252C415.66 269.76 473 268 500 264.5V300H80Z" fill="#EDF3CA"></path><path d="M103 107H499" stroke="#EB5757" stroke-width="1.5" stroke-linecap="round" stroke-linejoin="round" stroke-dasharray="9.67 9.67"></path><path d="M80.5 107.5C80.5 107.5 129.422 119.518 193 163.5C234.198 192 311 247.483 386 259.5C461 271.517 499.5 264.5 499.5 264.5" stroke="#B7D01C" stroke-width="2" stroke-miterlimit="10" stroke-linecap="round" stroke-linejoin="round"></path><path d="M81.7255 105.285C81.3305 105.16 80.9093 105.379 80.7847 105.774C80.6602 106.17 80.8794 106.591 81.2745 106.715L81.7255 105.285ZM209 172.5L209.414 171.875L209.414 171.875L209 172.5ZM397 68.5L397.546 69.014L397.546 69.014L397 68.5ZM499.4 23.2432C499.81 23.2987 500.188 23.0109 500.243 22.6004C500.299 22.19 500.011 21.8122 499.6 21.7568L499.4 23.2432ZM81.2745 106.715C136.66 124.179 170.077 147.62 208.586 173.125L209.414 171.875C170.923 146.38 137.34 122.821 81.7255 105.285L81.2745 106.715ZM208.586 173.125C218.355 179.596 231.527 186.494 244.828 191.777C258.112 197.053 271.607 200.75 282 200.75V199.25C271.893 199.25 258.611 195.637 245.381 190.383C232.169 185.135 219.09 178.283 209.414 171.875L208.586 173.125ZM282 200.75C299.294 200.75 312.318 195.549 322.829 186.953C333.318 178.376 341.266 166.448 348.48 153.059C352.089 146.36 355.522 139.28 358.998 132.057C362.476 124.829 365.998 117.457 369.791 110.152C377.379 95.5422 386.037 81.2425 397.546 69.014L396.454 67.986C384.807 80.3611 376.074 94.8008 368.46 109.461C364.653 116.79 361.121 124.186 357.647 131.407C354.17 138.632 350.75 145.683 347.16 152.347C339.976 165.681 332.139 177.402 321.88 185.792C311.643 194.164 298.956 199.25 282 199.25V200.75ZM397.546 69.014C437.381 26.69 481.14 20.7757 499.4 23.2432L499.6 21.7568C480.86 19.2243 436.619 25.31 396.454 67.986L397.546 69.014Z" fill="#EB5757"></path><path d="M205 175V300" stroke="#EB5757" stroke-width="1.5" stroke-linecap="round" stroke-dasharray="8 8"></path><path d="M80.5449 1.54639V300.454H499.454" stroke="#E0E0E0" stroke-miterlimit="10" stroke-linecap="round" stroke-linejoin="round"></path><circle cx="204.5" cy="169.5" r="5" fill="#EB5757" stroke="#EB5757"></circle><circle cx="81" cy="108" r="7" fill="#B7D01C"></circle><circle cx="498" cy="264" r="7" fill="#B7D01C"></circle><circle cx="500.5" cy="22.5" r="5" fill="#EB5757" stroke="#EB5757"></circle><path d="M525.752 265.128C527.496 265.128 529 264.52 530.024 263.368L528.984 262.36C528.12 263.272 527.064 263.704 525.832 263.704C523.304 263.704 521.432 261.88 521.432 259.4C521.432 256.92 523.304 255.096 525.832 255.096C527.064 255.096 528.12 255.512 528.984 256.424L530.024 255.416C529 254.264 527.496 253.672 525.768 253.672C522.36 253.672 519.832 256.088 519.832 259.4C519.832 262.712 522.36 265.128 525.752 265.128ZM536.058 256.808C534.634 256.808 533.434 257.432 532.714 258.52C532.874 256.312 533.914 255.224 536.122 254.744L539.69 253.976L539.466 252.568L535.594 253.432C532.666 254.072 531.242 255.976 531.242 259.48C531.242 263.048 532.858 265.128 535.754 265.128C538.346 265.128 540.138 263.432 540.138 260.936C540.138 258.504 538.458 256.808 536.058 256.808ZM535.786 263.848C534.154 263.848 532.986 262.664 532.986 260.984C532.986 259.304 534.122 258.184 535.786 258.184C537.45 258.184 538.57 259.304 538.57 260.984C538.57 262.664 537.434 263.848 535.786 263.848ZM545.278 256.44C543.918 256.44 542.654 256.824 541.774 257.528L542.414 258.68C543.07 258.12 544.094 257.768 545.102 257.768C546.622 257.768 547.374 258.52 547.374 259.816V260.12H544.942C542.414 260.12 541.534 261.24 541.534 262.6C541.534 264.072 542.75 265.096 544.67 265.096C545.998 265.096 546.942 264.648 547.454 263.88V265H548.91V259.88C548.91 257.56 547.598 256.44 545.278 256.44ZM544.926 263.912C543.758 263.912 543.054 263.384 543.054 262.536C543.054 261.816 543.486 261.224 545.006 261.224H547.374V262.408C546.99 263.384 546.078 263.912 544.926 263.912ZM552.444 256.52L552.299 259.656C552.188 261.656 552.124 263.736 550.748 263.736C550.636 263.736 550.508 263.72 550.364 263.688L550.268 264.984C550.62 265.08 550.924 265.128 551.212 265.128C553.132 265.128 553.532 262.744 553.676 259.752L553.772 257.864H557.42V265H558.956V256.52H552.444ZM564.95 256.44C563.59 256.44 562.326 256.824 561.446 257.528L562.086 258.68C562.742 258.12 563.766 257.768 564.774 257.768C566.294 257.768 567.046 258.52 567.046 259.816V260.12H564.614C562.086 260.12 561.206 261.24 561.206 262.6C561.206 264.072 562.422 265.096 564.342 265.096C565.67 265.096 566.614 264.648 567.126 263.88V265H568.582V259.88C568.582 257.56 567.27 256.44 564.95 256.44ZM564.598 263.912C563.43 263.912 562.726 263.384 562.726 262.536C562.726 261.816 563.158 261.224 564.678 261.224H567.046V262.408C566.662 263.384 565.75 263.912 564.598 263.912ZM571.347 265H572.883V261.448H577.715V265H579.251V256.52H577.715V260.12H572.883V256.52H571.347V265ZM585.934 265.096C587.454 265.096 588.718 264.456 589.39 263.272L588.222 262.536C587.678 263.368 586.846 263.752 585.918 263.752C584.254 263.752 583.006 262.6 583.006 260.76C583.006 258.952 584.254 257.784 585.918 257.784C586.846 257.784 587.678 258.168 588.222 259L589.39 258.248C588.718 257.064 587.454 256.44 585.934 256.44C583.326 256.44 581.454 258.232 581.454 260.76C581.454 263.288 583.326 265.096 585.934 265.096ZM591.379 265H592.787L597.971 258.824V265H599.507V256.52H598.115L592.915 262.696V256.52H591.379V265ZM606.984 256.44C605.736 256.44 604.648 256.92 603.96 257.864V256.52H602.488V268.104H604.024V263.72C604.728 264.632 605.784 265.096 606.984 265.096C609.464 265.096 611.272 263.368 611.272 260.76C611.272 258.168 609.464 256.44 606.984 256.44ZM606.856 263.752C605.24 263.752 604.008 262.568 604.008 260.76C604.008 258.968 605.24 257.784 606.856 257.784C608.488 257.784 609.72 258.968 609.72 260.76C609.72 262.568 608.488 263.752 606.856 263.752ZM617.136 265.096C619.68 265.096 621.536 263.288 621.536 260.76C621.536 258.232 619.68 256.44 617.136 256.44C614.592 256.44 612.72 258.232 612.72 260.76C612.72 263.288 614.592 265.096 617.136 265.096ZM617.136 263.752C615.504 263.752 614.272 262.568 614.272 260.76C614.272 258.952 615.504 257.784 617.136 257.784C618.768 257.784 619.984 258.952 619.984 260.76C619.984 262.568 618.768 263.752 617.136 263.752ZM629.53 260.6C630.378 260.264 630.89 259.608 630.89 258.696C630.89 257.304 629.69 256.52 627.69 256.52H623.754V265H627.834C630.09 265 631.178 264.136 631.178 262.664C631.178 261.592 630.65 260.888 629.53 260.6ZM625.258 257.704H627.562C628.73 257.704 629.354 258.104 629.354 258.92C629.354 259.736 628.73 260.168 627.562 260.168H625.258V257.704ZM627.722 263.816H625.258V261.272H627.818C629.082 261.272 629.642 261.688 629.642 262.568C629.642 263.432 628.986 263.816 627.722 263.816ZM636.606 256.44C635.246 256.44 633.982 256.824 633.102 257.528L633.742 258.68C634.398 258.12 635.422 257.768 636.43 257.768C637.95 257.768 638.702 258.52 638.702 259.816V260.12H636.27C633.742 260.12 632.862 261.24 632.862 262.6C632.862 264.072 634.078 265.096 635.998 265.096C637.326 265.096 638.27 264.648 638.782 263.88V265H640.238V259.88C640.238 257.56 638.926 256.44 636.606 256.44ZM636.254 263.912C635.086 263.912 634.382 263.384 634.382 262.536C634.382 261.816 634.814 261.224 636.334 261.224H638.702V262.408C638.318 263.384 637.406 263.912 636.254 263.912ZM643.004 265H644.54V261.448H649.372V265H650.908V256.52H649.372V260.12H644.54V256.52H643.004V265ZM653.894 265H655.43V261.448H660.262V265H661.798V256.52H660.262V260.12H655.43V256.52H653.894V265ZM667.809 256.44C666.449 256.44 665.185 256.824 664.305 257.528L664.945 258.68C665.601 258.12 666.625 257.768 667.633 257.768C669.153 257.768 669.905 258.52 669.905 259.816V260.12H667.473C664.945 260.12 664.065 261.24 664.065 262.6C664.065 264.072 665.281 265.096 667.201 265.096C668.529 265.096 669.473 264.648 669.985 263.88V265H671.441V259.88C671.441 257.56 670.129 256.44 667.809 256.44ZM667.457 263.912C666.289 263.912 665.585 263.384 665.585 262.536C665.585 261.816 666.017 261.224 667.537 261.224H669.905V262.408C669.521 263.384 668.609 263.912 667.457 263.912ZM677.295 256.52C675.023 256.52 673.567 257.528 673.567 259.496C673.567 260.84 674.287 261.72 675.551 262.104L673.487 265H675.135L676.991 262.312H677.167H679.631V265H681.007V256.52H677.295ZM675.135 259.544C675.135 258.36 675.935 257.864 677.343 257.864H679.631V261.208H677.279C675.855 261.208 675.135 260.68 675.135 259.544ZM527.816 283.656V276.52H521.24L521.112 279.384C521 281.528 520.792 283.592 519.576 283.656H519.128V286.968H520.584V285H527.672V286.968H529.112V283.656H527.816ZM522.52 279.496L522.6 277.864H526.28V283.656H521.528C522.296 282.984 522.456 281.256 522.52 279.496ZM531.113 285H532.521L537.705 278.824V285H539.241V276.52H537.849L532.649 282.696V276.52H531.113V285ZM549.886 280.808C549.886 278.2 548.142 276.44 545.694 276.44C543.246 276.44 541.438 278.248 541.438 280.76C541.438 283.288 543.262 285.096 545.998 285.096C547.406 285.096 548.574 284.616 549.342 283.72L548.494 282.728C547.87 283.416 547.038 283.752 546.046 283.752C544.366 283.752 543.166 282.76 542.974 281.272H549.854C549.87 281.128 549.886 280.936 549.886 280.808ZM545.694 277.736C547.182 277.736 548.254 278.744 548.414 280.168H542.974C543.134 278.728 544.222 277.736 545.694 277.736ZM558.23 276.52H550.486V277.864H553.59V285H555.126V277.864H558.23V276.52ZM562.825 276.44C561.465 276.44 560.201 276.824 559.321 277.528L559.961 278.68C560.617 278.12 561.641 277.768 562.649 277.768C564.169 277.768 564.921 278.52 564.921 279.816V280.12H562.489C559.961 280.12 559.081 281.24 559.081 282.6C559.081 284.072 560.297 285.096 562.217 285.096C563.545 285.096 564.489 284.648 565.001 283.88V285H566.457V279.88C566.457 277.56 565.145 276.44 562.825 276.44ZM562.473 283.912C561.305 283.912 560.601 283.384 560.601 282.536C560.601 281.816 561.033 281.224 562.553 281.224H564.921V282.408C564.537 283.384 563.625 283.912 562.473 283.912Z" fill="#9DB506"></path><path d="M27.1497 108.192C28.2377 107.776 28.8937 106.912 28.8937 105.68C28.8937 103.808 27.4217 102.8 24.9897 102.8H20.1737V114H25.2937C28.0457 114 29.4537 112.864 29.4537 110.944C29.4537 109.488 28.6537 108.56 27.1497 108.192ZM21.7577 104.064H24.8777C26.4137 104.064 27.2777 104.704 27.2777 105.904C27.2777 107.104 26.4137 107.728 24.8777 107.728H21.7577V104.064ZM25.2617 112.736H21.7577V108.944H25.2617C26.9417 108.944 27.8377 109.52 27.8377 110.816C27.8377 112.128 26.9417 112.736 25.2617 112.736ZM39.5348 109.808C39.5348 107.2 37.7908 105.44 35.3428 105.44C32.8948 105.44 31.0868 107.248 31.0868 109.76C31.0868 112.288 32.9108 114.096 35.6468 114.096C37.0548 114.096 38.2228 113.616 38.9908 112.72L38.1428 111.728C37.5188 112.416 36.6868 112.752 35.6948 112.752C34.0148 112.752 32.8148 111.76 32.6228 110.272H39.5028C39.5188 110.128 39.5348 109.936 39.5348 109.808ZM35.3428 106.736C36.8308 106.736 37.9028 107.744 38.0628 109.168H32.6228C32.7828 107.728 33.8708 106.736 35.3428 106.736ZM45.6137 114.096C47.1337 114.096 48.3977 113.456 49.0697 112.272L47.9017 111.536C47.3577 112.368 46.5257 112.752 45.5977 112.752C43.9337 112.752 42.6857 111.6 42.6857 109.76C42.6857 107.952 43.9337 106.784 45.5977 106.784C46.5257 106.784 47.3577 107.168 47.9017 108L49.0697 107.248C48.3977 106.064 47.1337 105.44 45.6137 105.44C43.0057 105.44 41.1337 107.232 41.1337 109.76C41.1337 112.288 43.0057 114.096 45.6137 114.096Z" fill="black"></path><path d="M525.752 28.128C527.496 28.128 529 27.52 530.024 26.368L528.984 25.36C528.12 26.272 527.064 26.704 525.832 26.704C523.304 26.704 521.432 24.88 521.432 22.4C521.432 19.92 523.304 18.096 525.832 18.096C527.064 18.096 528.12 18.512 528.984 19.424L530.024 18.416C529 17.264 527.496 16.672 525.768 16.672C522.36 16.672 519.832 19.088 519.832 22.4C519.832 25.712 522.36 28.128 525.752 28.128ZM538.058 19.52H530.314V20.864H533.418V28H534.954V20.864H538.058V19.52ZM544.125 19.44C542.877 19.44 541.789 19.92 541.101 20.864V19.52H539.629V31.104H541.165V26.72C541.869 27.632 542.925 28.096 544.125 28.096C546.605 28.096 548.413 26.368 548.413 23.76C548.413 21.168 546.605 19.44 544.125 19.44ZM543.997 26.752C542.381 26.752 541.149 25.568 541.149 23.76C541.149 21.968 542.381 20.784 543.997 20.784C545.629 20.784 546.861 21.968 546.861 23.76C546.861 25.568 545.629 26.752 543.997 26.752ZM554.276 28.096C556.82 28.096 558.676 26.288 558.676 23.76C558.676 21.232 556.82 19.44 554.276 19.44C551.732 19.44 549.86 21.232 549.86 23.76C549.86 26.288 551.732 28.096 554.276 28.096ZM554.276 26.752C552.644 26.752 551.412 25.568 551.412 23.76C551.412 21.952 552.644 20.784 554.276 20.784C555.908 20.784 557.124 21.952 557.124 23.76C557.124 25.568 555.908 26.752 554.276 26.752ZM567.134 19.52H560.894V28H562.43V20.864H567.134V19.52ZM571.731 19.44C570.371 19.44 569.107 19.824 568.227 20.528L568.867 21.68C569.523 21.12 570.547 20.768 571.555 20.768C573.075 20.768 573.827 21.52 573.827 22.816V23.12H571.395C568.867 23.12 567.987 24.24 567.987 25.6C567.987 27.072 569.203 28.096 571.123 28.096C572.451 28.096 573.395 27.648 573.907 26.88V28H575.363V22.88C575.363 20.56 574.051 19.44 571.731 19.44ZM571.379 26.912C570.211 26.912 569.507 26.384 569.507 25.536C569.507 24.816 569.939 24.224 571.459 24.224H573.827V25.408C573.443 26.384 572.531 26.912 571.379 26.912ZM581.217 19.52C578.945 19.52 577.489 20.528 577.489 22.496C577.489 23.84 578.209 24.72 579.473 25.104L577.409 28H579.057L580.913 25.312H581.089H583.553V28H584.929V19.52H581.217ZM579.057 22.544C579.057 21.36 579.857 20.864 581.265 20.864H583.553V24.208H581.201C579.777 24.208 579.057 23.68 579.057 22.544ZM527.816 46.656V39.52H521.24L521.112 42.384C521 44.528 520.792 46.592 519.576 46.656H519.128V49.968H520.584V48H527.672V49.968H529.112V46.656H527.816ZM522.52 42.496L522.6 40.864H526.28V46.656H521.528C522.296 45.984 522.456 44.256 522.52 42.496ZM531.113 48H532.521L537.705 41.824V48H539.241V39.52H537.849L532.649 45.696V39.52H531.113V48ZM549.886 43.808C549.886 41.2 548.142 39.44 545.694 39.44C543.246 39.44 541.438 41.248 541.438 43.76C541.438 46.288 543.262 48.096 545.998 48.096C547.406 48.096 548.574 47.616 549.342 46.72L548.494 45.728C547.87 46.416 547.038 46.752 546.046 46.752C544.366 46.752 543.166 45.76 542.974 44.272H549.854C549.87 44.128 549.886 43.936 549.886 43.808ZM545.694 40.736C547.182 40.736 548.254 41.744 548.414 43.168H542.974C543.134 41.728 544.222 40.736 545.694 40.736ZM558.23 39.52H550.486V40.864H553.59V48H555.126V40.864H558.23V39.52ZM562.825 39.44C561.465 39.44 560.201 39.824 559.321 40.528L559.961 41.68C560.617 41.12 561.641 40.768 562.649 40.768C564.169 40.768 564.921 41.52 564.921 42.816V43.12H562.489C559.961 43.12 559.081 44.24 559.081 45.6C559.081 47.072 560.297 48.096 562.217 48.096C563.545 48.096 564.489 47.648 565.001 46.88V48H566.457V42.88C566.457 40.56 565.145 39.44 562.825 39.44ZM562.473 46.912C561.305 46.912 560.601 46.384 560.601 45.536C560.601 44.816 561.033 44.224 562.553 44.224H564.921V45.408C564.537 46.384 563.625 46.912 562.473 46.912Z" fill="#EB5757"></path><path d="M453.931 320.192C455.019 319.776 455.675 318.912 455.675 317.68C455.675 315.808 454.203 314.8 451.771 314.8H446.955V326H452.075C454.827 326 456.235 324.864 456.235 322.944C456.235 321.488 455.435 320.56 453.931 320.192ZM448.539 316.064H451.659C453.195 316.064 454.059 316.704 454.059 317.904C454.059 319.104 453.195 319.728 451.659 319.728H448.539V316.064ZM452.043 324.736H448.539V320.944H452.043C453.723 320.944 454.619 321.52 454.619 322.816C454.619 324.128 453.723 324.736 452.043 324.736ZM463.148 317.44C461.9 317.44 460.812 317.92 460.124 318.864V317.52H458.652V329.104H460.188V324.72C460.892 325.632 461.948 326.096 463.148 326.096C465.628 326.096 467.436 324.368 467.436 321.76C467.436 319.168 465.628 317.44 463.148 317.44ZM463.02 324.752C461.404 324.752 460.172 323.568 460.172 321.76C460.172 319.968 461.404 318.784 463.02 318.784C464.652 318.784 465.884 319.968 465.884 321.76C465.884 323.568 464.652 324.752 463.02 324.752ZM477.332 321.808C477.332 319.2 475.588 317.44 473.14 317.44C470.692 317.44 468.884 319.248 468.884 321.76C468.884 324.288 470.708 326.096 473.444 326.096C474.852 326.096 476.02 325.616 476.788 324.72L475.94 323.728C475.316 324.416 474.484 324.752 473.492 324.752C471.812 324.752 470.612 323.76 470.42 322.272H477.3C477.316 322.128 477.332 321.936 477.332 321.808ZM473.14 318.736C474.628 318.736 475.7 319.744 475.86 321.168H470.42C470.58 319.728 471.668 318.736 473.14 318.736ZM488.051 317.52L484.627 323.248L481.299 317.52H479.715V326H481.123V319.792L484.259 325.04H484.931L488.099 319.808V326H489.491V317.52H488.051ZM495.568 317.52C493.296 317.52 491.84 318.528 491.84 320.496C491.84 321.84 492.56 322.72 493.824 323.104L491.76 326H493.408L495.264 323.312H495.44H497.904V326H499.28V317.52H495.568ZM493.408 320.544C493.408 319.36 494.208 318.864 495.616 318.864H497.904V322.208H495.552C494.128 322.208 493.408 321.68 493.408 320.544Z" fill="black"></path><path d="M86.096 359.166L85.774 358.564L84.024 359.6V357.612H83.38L83.394 359.6L81.644 358.564L81.308 359.166L83.058 360.146L81.308 361.126L81.644 361.714L83.394 360.692L83.38 362.68H84.024V360.692L85.774 361.714L86.096 361.126L84.36 360.146L86.096 359.166ZM96.6865 360.636H91.4785V368H92.4725V361.518H96.6865V360.636ZM101.917 360.58C100.699 360.58 99.677 361.112 99.075 362.092V360.636H98.123V370.716H99.117V366.614C99.733 367.566 100.741 368.07 101.917 368.07C104.017 368.07 105.585 366.558 105.585 364.318C105.585 362.092 104.017 360.58 101.917 360.58ZM101.847 367.188C100.279 367.188 99.103 366.04 99.103 364.318C99.103 362.61 100.279 361.448 101.847 361.448C103.401 361.448 104.591 362.61 104.591 364.318C104.591 366.04 103.401 367.188 101.847 367.188ZM110.214 360.58C109.052 360.58 107.96 360.944 107.218 361.574L107.666 362.316C108.268 361.784 109.164 361.448 110.116 361.448C111.488 361.448 112.202 362.134 112.202 363.394V363.842H109.864C107.75 363.842 107.022 364.794 107.022 365.928C107.022 367.202 108.044 368.07 109.71 368.07C110.928 368.07 111.796 367.608 112.244 366.852V368H113.196V363.436C113.196 361.532 112.118 360.58 110.214 360.58ZM109.864 367.286C108.688 367.286 108.002 366.754 108.002 365.9C108.002 365.144 108.464 364.584 109.892 364.584H112.202V365.788C111.81 366.754 110.984 367.286 109.864 367.286ZM124.732 364.304C124.732 362.036 123.136 360.706 120.392 360.58V357.612H119.426V360.58C116.682 360.692 115.114 362.022 115.114 364.304C115.114 366.614 116.696 367.972 119.426 368.084V370.716H120.392V368.07C123.136 367.958 124.732 366.614 124.732 364.304ZM116.094 364.304C116.094 362.596 117.242 361.574 119.426 361.462V367.202C117.242 367.076 116.094 366.054 116.094 364.304ZM120.392 367.202V361.462C122.59 361.574 123.752 362.582 123.752 364.304C123.752 366.068 122.59 367.09 120.392 367.202ZM126.834 368H127.73L132.63 362.148V368H133.624V360.636H132.742L127.828 366.488V360.636H126.834V368ZM141.863 368H143.039L139.931 364.206L142.829 360.636H141.751L139.161 363.87H137.467V360.636H136.473V368H137.467V364.724H139.147L141.863 368ZM148.271 368H149.265V364.752H153.899V368H154.893V360.636H153.899V363.898H149.265V360.636H148.271V368ZM164.173 364.318C164.173 362.106 162.675 360.58 160.603 360.58C158.531 360.58 157.005 362.134 157.005 364.318C157.005 366.502 158.573 368.07 160.869 368.07C162.031 368.07 163.053 367.65 163.711 366.866L163.151 366.222C162.591 366.866 161.793 367.188 160.897 367.188C159.287 367.188 158.111 366.166 157.999 364.626H164.159C164.159 364.514 164.173 364.402 164.173 364.318ZM160.603 361.434C162.045 361.434 163.095 362.442 163.221 363.884H157.999C158.125 362.442 159.175 361.434 160.603 361.434ZM172.599 360.636C170.695 360.636 169.463 361.476 169.463 363.156C169.463 364.346 170.107 365.116 171.241 365.424L169.407 368H170.485L172.193 365.564H172.473H174.783V368H175.693V360.636H172.599ZM170.471 363.184C170.471 362.008 171.255 361.518 172.627 361.518H174.783V364.822H172.557C171.185 364.822 170.471 364.304 170.471 363.184ZM183.217 364.192C183.987 363.912 184.463 363.352 184.463 362.526C184.463 361.308 183.441 360.636 181.775 360.636H178.527V368H181.873C183.791 368 184.715 367.272 184.715 365.998C184.715 365.032 184.239 364.43 183.217 364.192ZM179.493 361.42H181.705C182.839 361.42 183.469 361.826 183.469 362.652C183.469 363.478 182.839 363.912 181.705 363.912H179.493V361.42ZM181.831 367.216H179.493V364.654H181.929C183.175 364.654 183.735 365.06 183.735 365.942C183.735 366.824 183.077 367.216 181.831 367.216ZM187.675 360.636L187.549 363.268C187.451 365.214 187.339 367.188 186.121 367.188C186.023 367.188 185.897 367.16 185.771 367.132L185.701 367.986C185.967 368.056 186.191 368.098 186.415 368.098C187.997 368.098 188.319 365.914 188.445 363.338L188.543 361.518H192.071V368H193.065V360.636H187.675ZM198.453 360.636C196.549 360.636 195.317 361.476 195.317 363.156C195.317 364.346 195.961 365.116 197.095 365.424L195.261 368H196.339L198.047 365.564H198.327H200.637V368H201.547V360.636H198.453ZM196.325 363.184C196.325 362.008 197.109 361.518 198.481 361.518H200.637V364.822H198.411C197.039 364.822 196.325 364.304 196.325 363.184ZM210.835 364.318C210.835 362.106 209.337 360.58 207.265 360.58C205.193 360.58 203.667 362.134 203.667 364.318C203.667 366.502 205.235 368.07 207.531 368.07C208.693 368.07 209.715 367.65 210.373 366.866L209.813 366.222C209.253 366.866 208.455 367.188 207.559 367.188C205.949 367.188 204.773 366.166 204.661 364.626H210.821C210.821 364.514 210.835 364.402 210.835 364.318ZM207.265 361.434C208.707 361.434 209.757 362.442 209.883 363.884H204.661C204.787 362.442 205.837 361.434 207.265 361.434ZM217.887 360.636H211.321V361.518H214.107V368H215.101V361.518H217.887V360.636ZM222.062 368.07C223.308 368.07 224.358 367.566 224.946 366.614L224.204 366.11C223.7 366.852 222.916 367.188 222.062 367.188C220.452 367.188 219.276 366.054 219.276 364.318C219.276 362.596 220.452 361.448 222.062 361.448C222.916 361.448 223.7 361.798 224.204 362.54L224.946 362.036C224.358 361.07 223.308 360.58 222.062 360.58C219.864 360.58 218.268 362.12 218.268 364.318C218.268 366.516 219.864 368.07 222.062 368.07ZM229.187 360.636C227.283 360.636 226.051 361.476 226.051 363.156C226.051 364.346 226.695 365.116 227.829 365.424L225.995 368H227.073L228.781 365.564H229.061H231.371V368H232.281V360.636H229.187ZM227.059 363.184C227.059 362.008 227.843 361.518 229.215 361.518H231.371V364.822H229.145C227.773 364.822 227.059 364.304 227.059 363.184ZM238.779 360.636V368H239.773V361.518H244.393V368H245.387V360.636H238.779ZM254.667 364.318C254.667 362.106 253.169 360.58 251.097 360.58C249.025 360.58 247.499 362.134 247.499 364.318C247.499 366.502 249.067 368.07 251.363 368.07C252.525 368.07 253.547 367.65 254.205 366.866L253.645 366.222C253.085 366.866 252.287 367.188 251.391 367.188C249.781 367.188 248.605 366.166 248.493 364.626H254.653C254.653 364.514 254.667 364.402 254.667 364.318ZM251.097 361.434C252.539 361.434 253.589 362.442 253.715 363.884H248.493C248.619 362.442 249.669 361.434 251.097 361.434ZM260.661 360.58C259.443 360.58 258.421 361.112 257.819 362.092V360.636H256.867V370.716H257.861V366.614C258.477 367.566 259.485 368.07 260.661 368.07C262.761 368.07 264.329 366.558 264.329 364.318C264.329 362.092 262.761 360.58 260.661 360.58ZM260.591 367.188C259.023 367.188 257.847 366.04 257.847 364.318C257.847 362.61 259.023 361.448 260.591 361.448C262.145 361.448 263.335 362.61 263.335 364.318C263.335 366.04 262.145 367.188 260.591 367.188ZM269.545 368.07C270.791 368.07 271.841 367.566 272.429 366.614L271.687 366.11C271.183 366.852 270.399 367.188 269.545 367.188C267.935 367.188 266.759 366.054 266.759 364.318C266.759 362.596 267.935 361.448 269.545 361.448C270.399 361.448 271.183 361.798 271.687 362.54L272.429 362.036C271.841 361.07 270.791 360.58 269.545 360.58C267.347 360.58 265.751 362.12 265.751 364.318C265.751 366.516 267.347 368.07 269.545 368.07ZM277.268 368.07C279.424 368.07 281.006 366.502 281.006 364.318C281.006 362.134 279.424 360.58 277.268 360.58C275.112 360.58 273.516 362.134 273.516 364.318C273.516 366.502 275.112 368.07 277.268 368.07ZM277.268 367.188C275.7 367.188 274.524 366.04 274.524 364.318C274.524 362.596 275.7 361.448 277.268 361.448C278.836 361.448 279.998 362.596 279.998 364.318C279.998 366.04 278.836 367.188 277.268 367.188ZM283.131 368H284.125V364.752H288.759V368H289.753V360.636H288.759V363.898H284.125V360.636H283.131V368ZM295.112 360.58C293.95 360.58 292.858 360.944 292.116 361.574L292.564 362.316C293.166 361.784 294.062 361.448 295.014 361.448C296.386 361.448 297.1 362.134 297.1 363.394V363.842H294.762C292.648 363.842 291.92 364.794 291.92 365.928C291.92 367.202 292.942 368.07 294.608 368.07C295.826 368.07 296.694 367.608 297.142 366.852V368H298.094V363.436C298.094 361.532 297.016 360.58 295.112 360.58ZM294.762 367.286C293.586 367.286 292.9 366.754 292.9 365.9C292.9 365.144 293.362 364.584 294.79 364.584H297.1V365.788C296.708 366.754 295.882 367.286 294.762 367.286ZM301.37 360.636L301.244 363.268C301.146 365.214 301.034 367.188 299.816 367.188C299.718 367.188 299.592 367.16 299.466 367.132L299.396 367.986C299.662 368.056 299.886 368.098 300.11 368.098C301.692 368.098 302.014 365.914 302.14 363.338L302.238 361.518H305.766V368H306.76V360.636H301.37ZM309.586 368H310.482L315.382 362.148V368H316.376V360.636H315.494L310.58 366.488V360.636H309.586V368ZM322.658 364.164C323.512 363.884 324.086 363.296 324.086 362.526C324.086 361.322 322.798 360.552 321.118 360.552C320.222 360.552 319.298 360.762 318.388 361.238L318.668 362.008C319.452 361.602 320.264 361.406 321.02 361.406C322.196 361.406 323.064 361.854 323.064 362.666C323.064 363.394 322.308 363.828 321.23 363.828H320.026V364.556H321.286C322.518 364.556 323.274 365.018 323.274 365.802C323.274 366.698 322.28 367.23 320.95 367.23C320.054 367.23 319.102 366.95 318.416 366.432L318.08 367.174C318.864 367.776 319.942 368.084 320.992 368.084C322.826 368.084 324.296 367.216 324.296 365.886C324.296 365.018 323.694 364.402 322.658 364.164ZM326.553 368H327.449L332.349 362.148V368H333.343V360.636H332.461L327.547 366.488V360.636H326.553V368ZM339.985 360.58C338.767 360.58 337.745 361.112 337.143 362.092V360.636H336.191V370.716H337.185V366.614C337.801 367.566 338.809 368.07 339.985 368.07C342.085 368.07 343.653 366.558 343.653 364.318C343.653 362.092 342.085 360.58 339.985 360.58ZM339.915 367.188C338.347 367.188 337.171 366.04 337.171 364.318C337.171 362.61 338.347 361.448 339.915 361.448C341.469 361.448 342.659 362.61 342.659 364.318C342.659 366.04 341.469 367.188 339.915 367.188ZM348.827 368.07C350.983 368.07 352.565 366.502 352.565 364.318C352.565 362.134 350.983 360.58 348.827 360.58C346.671 360.58 345.075 362.134 345.075 364.318C345.075 366.502 346.671 368.07 348.827 368.07ZM348.827 367.188C347.259 367.188 346.083 366.04 346.083 364.318C346.083 362.596 347.259 361.448 348.827 361.448C350.395 361.448 351.557 362.596 351.557 364.318C351.557 366.04 350.395 367.188 348.827 367.188ZM359.379 364.192C360.149 363.912 360.625 363.352 360.625 362.526C360.625 361.308 359.603 360.636 357.937 360.636H354.689V368H358.035C359.953 368 360.877 367.272 360.877 365.998C360.877 365.032 360.401 364.43 359.379 364.192ZM355.655 361.42H357.867C359.001 361.42 359.631 361.826 359.631 362.652C359.631 363.478 359.001 363.912 357.867 363.912H355.655V361.42ZM357.993 367.216H355.655V364.654H358.091C359.337 364.654 359.897 365.06 359.897 365.942C359.897 366.824 359.239 367.216 357.993 367.216ZM365.741 360.58C364.579 360.58 363.487 360.944 362.745 361.574L363.193 362.316C363.795 361.784 364.691 361.448 365.643 361.448C367.015 361.448 367.729 362.134 367.729 363.394V363.842H365.391C363.277 363.842 362.549 364.794 362.549 365.928C362.549 367.202 363.571 368.07 365.237 368.07C366.455 368.07 367.323 367.608 367.771 366.852V368H368.723V363.436C368.723 361.532 367.645 360.58 365.741 360.58ZM365.391 367.286C364.215 367.286 363.529 366.754 363.529 365.9C363.529 365.144 363.991 364.584 365.419 364.584H367.729V365.788C367.337 366.754 366.511 367.286 365.391 367.286ZM371.369 368H372.363V364.752H376.997V368H377.991V360.636H376.997V363.898H372.363V360.636H371.369V368ZM380.816 368H381.81V364.752H386.444V368H387.438V360.636H386.444V363.898H381.81V360.636H380.816V368ZM393.302 368.07C395.458 368.07 397.04 366.502 397.04 364.318C397.04 362.134 395.458 360.58 393.302 360.58C391.146 360.58 389.55 362.134 389.55 364.318C389.55 366.502 391.146 368.07 393.302 368.07ZM393.302 367.188C391.734 367.188 390.558 366.04 390.558 364.318C390.558 362.596 391.734 361.448 393.302 361.448C394.87 361.448 396.032 362.596 396.032 364.318C396.032 366.04 394.87 367.188 393.302 367.188ZM402.51 359.586C403.756 359.586 404.582 358.942 404.61 357.766H403.896C403.868 358.508 403.308 358.97 402.51 358.97C401.712 358.97 401.152 358.508 401.138 357.766H400.424C400.452 358.942 401.264 359.586 402.51 359.586ZM399.164 368H400.06L404.96 362.148V368H405.954V360.636H405.072L400.158 366.488V360.636H399.164V368ZM412.467 368H413.363L418.263 362.148V368H419.257V360.636H418.375L413.461 366.488V360.636H412.467V368ZM422.735 360.636L422.609 363.268C422.511 365.214 422.399 367.188 421.181 367.188C421.083 367.188 420.957 367.16 420.831 367.132L420.761 367.986C421.027 368.056 421.251 368.098 421.475 368.098C423.057 368.098 423.379 365.914 423.505 363.338L423.603 361.518H427.131V368H428.125V360.636H422.735ZM431.581 360.636L431.455 363.268C431.357 365.214 431.245 367.188 430.027 367.188C429.929 367.188 429.803 367.16 429.677 367.132L429.607 367.986C429.873 368.056 430.097 368.098 430.321 368.098C431.903 368.098 432.225 365.914 432.351 363.338L432.449 361.518H435.977V368H436.971V360.636H431.581ZM446.125 360.58C444.179 360.58 442.709 361.882 442.485 363.814H440.791V360.636H439.797V368H440.791V364.724H442.471C442.653 366.698 444.151 368.07 446.125 368.07C448.225 368.07 449.779 366.502 449.779 364.318C449.779 362.12 448.225 360.58 446.125 360.58ZM446.125 367.202C444.599 367.202 443.451 366.04 443.451 364.318C443.451 362.596 444.599 361.448 446.125 361.448C447.637 361.448 448.799 362.596 448.799 364.318C448.799 366.04 447.637 367.202 446.125 367.202ZM454.99 368.07C456.236 368.07 457.286 367.566 457.874 366.614L457.132 366.11C456.628 366.852 455.844 367.188 454.99 367.188C453.38 367.188 452.204 366.054 452.204 364.318C452.204 362.596 453.38 361.448 454.99 361.448C455.844 361.448 456.628 361.798 457.132 362.54L457.874 362.036C457.286 361.07 456.236 360.58 454.99 360.58C452.792 360.58 451.196 362.12 451.196 364.318C451.196 366.516 452.792 368.07 454.99 368.07ZM464.842 360.636H458.276V361.518H461.062V368H462.056V361.518H464.842V360.636ZM470.073 360.58C468.855 360.58 467.833 361.112 467.231 362.092V360.636H466.279V370.716H467.273V366.614C467.889 367.566 468.897 368.07 470.073 368.07C472.173 368.07 473.741 366.558 473.741 364.318C473.741 362.092 472.173 360.58 470.073 360.58ZM470.003 367.188C468.435 367.188 467.259 366.04 467.259 364.318C467.259 362.61 468.435 361.448 470.003 361.448C471.557 361.448 472.747 362.61 472.747 364.318C472.747 366.04 471.557 367.188 470.003 367.188ZM478.37 360.58C477.208 360.58 476.116 360.944 475.374 361.574L475.822 362.316C476.424 361.784 477.32 361.448 478.272 361.448C479.644 361.448 480.358 362.134 480.358 363.394V363.842H478.02C475.906 363.842 475.178 364.794 475.178 365.928C475.178 367.202 476.2 368.07 477.866 368.07C479.084 368.07 479.952 367.608 480.4 366.852V368H481.352V363.436C481.352 361.532 480.274 360.58 478.37 360.58ZM478.02 367.286C476.844 367.286 476.158 366.754 476.158 365.9C476.158 365.144 476.62 364.584 478.048 364.584H480.358V365.788C479.966 366.754 479.14 367.286 478.02 367.286ZM490.48 367.132V360.636H489.486V367.132H484.992V360.636H483.998V368H490.732V369.848H491.67V367.132H490.48ZM493.568 368H494.464L499.364 362.148V368H500.358V360.636H499.476L494.562 366.488V360.636H493.568V368ZM509.661 364.318C509.661 362.106 508.163 360.58 506.091 360.58C504.019 360.58 502.493 362.134 502.493 364.318C502.493 366.502 504.061 368.07 506.357 368.07C507.519 368.07 508.541 367.65 509.199 366.866L508.639 366.222C508.079 366.866 507.281 367.188 506.385 367.188C504.775 367.188 503.599 366.166 503.487 364.626H509.647C509.647 364.514 509.661 364.402 509.661 364.318ZM506.091 361.434C507.533 361.434 508.583 362.442 508.709 363.884H503.487C503.613 362.442 504.663 361.434 506.091 361.434ZM515.207 359.586C516.453 359.586 517.279 358.942 517.307 357.766H516.593C516.565 358.508 516.005 358.97 515.207 358.97C514.409 358.97 513.849 358.508 513.835 357.766H513.121C513.149 358.942 513.961 359.586 515.207 359.586ZM511.861 368H512.757L517.657 362.148V368H518.651V360.636H517.769L512.855 366.488V360.636H511.861V368Z" fill="#4F4F4F"></path></svg> 